HIERARCHY
ROOT Hips
{
	OFFSET 0.000000 0.000000 0.000000 
	CHANNELS 6 Xposition Yposition Zposition Zrotation Yrotation Xrotation
	JOINT LeftUpLeg
	{
		OFFSET 1.363060 -1.794630 0.839290 
		CHANNELS 3 Zrotation Yrotation Xrotation
		JOINT LeftLeg
		{
			OFFSET 2.448110 -6.726130 0.000000 
			CHANNELS 3 Zrotation Yrotation Xrotation
			JOINT LeftFoot
			{
				OFFSET 2.562200 -7.039590 0.000000 
				CHANNELS 3 Zrotation Yrotation Xrotation
				JOINT LeftToeBase
				{
					OFFSET 0.157640 -0.433110 2.322550 
					CHANNELS 3 Zrotation Yrotation Xrotation
					End Site
					{
						OFFSET 0.000000 0.000000 0.000000 
					}
				}
			}
		}
	}
	JOINT RightUpLeg
	{
		OFFSET -1.305520 -1.794630 0.839290 
		CHANNELS 3 Zrotation Yrotation Xrotation
		JOINT RightLeg
		{
			OFFSET -2.542530 -6.985550 0.000000 
			CHANNELS 3 Zrotation Yrotation Xrotation
			JOINT RightFoot
			{
				OFFSET -2.568260 -7.056230 0.000000 
				CHANNELS 3 Zrotation Yrotation Xrotation
				JOINT RightToeBase
				{
					OFFSET -0.164730 -0.452590 2.363150 
					CHANNELS 3 Zrotation Yrotation Xrotation
					End Site
					{
						OFFSET 0.000000 0.000000 0.000000 
					}
				}
			}
		}
	}
	JOINT Spine
	{
		OFFSET 0.028270 2.035590 -0.193380 
		CHANNELS 3 Zrotation Yrotation Xrotation
		JOINT Spine1
		{
			OFFSET 0.056720 2.048850 -0.042750 
			CHANNELS 3 Zrotation Yrotation Xrotation
			JOINT Neck1
			{
				OFFSET -0.054170 1.746240 0.172020 
				CHANNELS 3 Zrotation Yrotation Xrotation
				JOINT Head
				{
					OFFSET 0.104070 1.761360 -0.123970 
					CHANNELS 3 Zrotation Yrotation Xrotation
					End Site
					{
						OFFSET 0.000000 0.000000 0.000000 
					}
				}
			}
			JOINT LeftArm
			{
				OFFSET 3.362410 1.200890 -0.311210 
				CHANNELS 3 Zrotation Yrotation Xrotation
				JOINT LeftForeArm
				{
					OFFSET 4.983000 -0.000000 -0.000000 
					CHANNELS 3 Zrotation Yrotation Xrotation
					JOINT LeftHand
					{
						OFFSET 3.483560 -0.000000 -0.000000 
						CHANNELS 3 Zrotation Yrotation Xrotation
						JOINT LeftHandIndex1
						{
							OFFSET 0.715260 -0.000000 -0.000000 
							CHANNELS 3 Zrotation Yrotation Xrotation
							End Site
							{
								OFFSET 0.000000 0.000000 0.000000 
							}
						}
					}
				}
			}
			JOINT RightArm
			{
				OFFSET -3.136600 1.374050 -0.404650 
				CHANNELS 3 Zrotation Yrotation Xrotation
				JOINT RightForeArm
				{
					OFFSET -5.241900 -0.000000 -0.000000 
					CHANNELS 3 Zrotation Yrotation Xrotation
					JOINT RightHand
					{
						OFFSET -3.444170 -0.000000 -0.000000 
						CHANNELS 3 Zrotation Yrotation Xrotation
						JOINT RightHandIndex1
						{
							OFFSET -0.622530 -0.000000 -0.000000 
							CHANNELS 3 Zrotation Yrotation Xrotation
							End Site
							{
								OFFSET 0.000000 0.000000 0.000000 
							}
						}
					}
				}
			}
		}
	}
}
MOTION
Frames: 16
Frame Time: 0.041667
2.671774 19.782315 20.408691 -178.513671 0.710108 -144.782970 -8.304520 -22.144071 -29.272059 -1.154031 8.642744 18.998263 2.526135 14.337199 4.382894 4.493900 -12.790200 -38.588000 16.360891 26.005265 -55.616549 -0.710471 -16.420182 33.912415 -0.728215 0.075249 -19.828279 -1.560300 7.882800 -22.358700 2.195430 -1.088175 -4.021174 -1.174159 -0.897612 12.298348 6.359966 -7.170199 27.828701 -0.168000 -1.757000 6.672500 -102.301136 -3.797648 24.648480 19.312766 -24.679399 -5.671053 -1.624645 0.442577 -1.605890 -7.125000 0.000000 0.000000 89.600930 -0.396837 15.527612 -26.600085 38.660795 -11.807423 0.313075 3.642622 -7.283760 7.125000 0.000000 0.000000 
2.720142 19.853716 20.375129 -179.110909 0.546344 -145.353743 -9.189641 -22.474151 -29.259181 -0.937491 9.140830 20.208557 2.226691 12.131397 3.252995 3.878600 -11.997100 -35.721600 16.612336 25.415505 -53.880707 -0.463545 -15.821663 32.432970 -0.694803 -0.192243 -19.499303 -1.555300 7.870800 -22.322500 2.145208 -1.139086 -3.968778 -1.027722 -0.962082 12.162323 6.553730 -7.300884 27.827863 -0.112000 -1.807100 6.676400 -102.190931 -3.659013 24.702857 19.275722 -24.636092 -5.650093 -1.617077 0.405284 -1.817078 -7.125000 0.000000 0.000000 89.651944 -0.324272 15.425260 -26.793708 38.810310 -11.935948 0.315763 3.638623 -7.250173 7.125000 0.000000 0.000000 
2.766975 19.923691 20.358019 179.826836 0.932599 -146.376585 -11.059075 -22.871388 -28.716987 -0.727734 9.655156 21.632319 1.983752 10.879122 1.792629 2.234000 -9.337400 -26.856500 16.166544 24.910349 -51.943476 -0.301376 -15.281576 31.224490 -0.670127 -0.323601 -19.200979 -1.425700 7.550400 -21.356700 2.018222 -1.079044 -3.870432 -0.677479 -1.015550 11.797563 6.734955 -7.308962 27.583829 -0.053400 -1.818300 6.564300 -102.122574 -3.508177 24.576619 19.239800 -24.586787 -5.626069 -1.605930 0.374230 -1.837153 -7.125000 0.000000 0.000000 89.666803 -0.262364 15.317728 -27.003589 38.949183 -12.065596 0.310149 3.621528 -7.125650 7.125000 0.000000 0.000000 
2.808872 19.984563 20.352535 178.660984 1.839628 -147.332704 -13.253561 -23.035142 -28.235051 -0.494931 10.201046 23.177275 1.756153 9.797229 0.051866 1.739700 -8.301400 -23.633300 15.263914 24.679079 -50.360808 -0.195458 -14.831835 30.248817 -0.641275 -0.186636 -18.798698 -1.251900 7.093600 -19.993100 1.853524 -0.833909 -3.789609 -0.156609 -0.992131 11.334732 6.746881 -7.210387 27.548138 -0.017700 -1.773400 6.535900 -102.155863 -3.159757 24.600638 19.321788 -24.708938 -5.690374 -1.566554 0.362614 -2.020253 -7.125000 0.000000 0.000000 89.602534 -0.313697 15.249196 -27.240299 39.105015 -12.213016 0.315111 3.596697 -7.076171 7.125000 0.000000 0.000000 
2.843860 20.040828 20.356045 177.670652 2.745544 -147.833851 -14.981903 -23.211311 -28.435468 -0.250938 10.884801 24.972118 1.600006 9.347421 -2.149207 1.370800 -7.409600 -20.934700 14.289439 24.563220 -49.455051 -0.098539 -14.462572 29.381087 -0.607918 -0.075025 -18.340284 -1.153000 6.817600 -19.176100 1.679847 -0.492125 -3.758006 0.227389 -0.896237 10.926092 6.655745 -7.162093 27.649238 -0.038800 -1.741000 6.600500 -102.079324 -2.913130 24.936297 19.363613 -24.775291 -5.733592 -1.527826 0.373152 -2.272523 -7.125000 0.000000 0.000000 89.623666 -0.353132 15.168963 -27.537327 39.328590 -12.414026 0.316272 3.611818 -7.327059 7.125000 0.000000 0.000000 
2.888280 20.102687 20.327748 177.094372 2.723222 -148.479756 -16.079507 -23.435146 -28.405107 0.021393 11.541493 26.783546 1.486216 9.107183 -4.349901 1.245000 -7.074600 -19.936700 14.438627 24.211503 -47.745823 0.070206 -13.886890 28.070225 -0.586081 -0.461190 -18.039233 -1.238600 7.057300 -19.885200 1.653522 -0.563734 -3.666907 0.474192 -0.984863 10.909459 6.394201 -7.121374 27.822694 -0.136200 -1.723700 6.755500 -102.052205 -2.945484 24.958769 19.282877 -24.660484 -5.681574 -1.529141 0.385786 -2.126342 -7.125000 0.000000 0.000000 89.561168 -0.106974 15.192040 -27.703932 39.450531 -12.526607 0.310660 3.626230 -7.475412 7.125000 0.000000 0.000000 
2.928861 20.161475 20.295173 176.577255 2.545908 -149.099731 -17.122465 -23.670616 -28.389973 0.313398 12.191749 28.619441 1.429668 9.116837 -6.499913 0.987400 -6.324800 -17.729600 14.674983 23.830270 -46.005684 0.233699 -13.293926 26.738573 -0.569493 -0.997514 -17.806457 -1.398300 7.480600 -21.147300 1.598863 -0.631795 -3.581924 0.494909 -1.045912 10.993069 6.321772 -7.132815 27.892754 -0.176400 -1.719400 6.750400 -101.881526 -2.914511 24.970263 19.125494 -24.456837 -5.582185 -1.544883 0.394460 -1.761209 -7.125000 0.000000 0.000000 89.704283 0.005161 15.058599 -27.779824 39.506874 -12.576441 0.322110 3.605192 -7.447293 7.125000 0.000000 0.000000 
2.967468 20.213572 20.265450 175.898718 2.704401 -149.863435 -18.584625 -23.679388 -28.106344 0.594626 12.736421 30.262636 1.417178 9.300255 -8.708242 0.958300 -6.233400 -17.463200 14.637993 23.567190 -44.233493 0.354354 -12.743381 25.567576 -0.558158 -1.380651 -17.620588 -1.487700 7.705800 -21.824000 1.519047 -0.590592 -3.468442 0.684622 -1.078930 11.041703 6.320255 -7.187980 28.033577 -0.172700 -1.741100 6.849300 -101.753155 -2.984909 25.029232 18.960651 -24.235233 -5.481452 -1.540606 0.406637 -1.614466 -7.125000 0.000000 0.000000 89.749748 0.214891 14.958080 -27.894342 39.583897 -12.650440 0.316653 3.592476 -7.622384 7.125000 0.000000 0.000000 
3.004978 20.259856 20.249766 174.901788 3.388477 -150.892057 -20.734094 -23.272970 -27.494226 0.859620 13.163051 31.701572 1.448199 9.655060 -10.965342 1.307700 -7.244000 -20.440300 14.122102 23.386786 -42.552721 0.404106 -12.305436 24.736920 -0.541635 -1.457819 -17.273992 -1.508700 7.757500 -21.979900 1.353081 -0.312420 -3.343545 1.025721 -1.016793 10.899361 6.354599 -7.462105 28.321719 -0.174700 -1.850700 6.998100 -101.593713 -2.905837 25.241704 18.883593 -24.138944 -5.442745 -1.516236 0.406365 -1.571817 -7.125000 0.000000 0.000000 89.839020 0.174118 14.863356 -28.113399 39.742193 -12.791075 0.285587 3.582182 -7.832316 7.125000 0.000000 0.000000 
3.041391 20.306909 20.230024 173.931747 4.013512 -152.015662 -22.878946 -22.844922 -26.766962 1.140386 13.547523 33.089673 1.497501 9.925079 -12.920009 1.390900 -7.461700 -21.090500 13.691374 23.176102 -40.713872 0.456776 -11.797359 23.771501 -0.519856 -1.456666 -16.804573 -1.435700 7.575800 -21.432800 1.156491 -0.075541 -3.327308 1.124439 -0.899699 10.099822 6.392994 -7.243221 28.096507 -0.169800 -1.729600 6.862700 -101.366919 -2.385783 25.365519 18.851838 -24.101101 -5.430617 -1.503472 0.411718 -1.442170 -7.125000 0.000000 0.000000 90.142054 -0.269489 14.924144 -28.336147 39.906931 -12.936485 0.284624 3.593617 -7.838197 7.125000 0.000000 0.000000 
3.078682 20.352206 20.200959 172.979068 4.436482 -153.211837 -24.963794 -22.542855 -25.906309 1.439144 13.912480 34.465833 1.561627 10.137537 -14.666524 1.289300 -7.194800 -20.293700 13.413355 22.940102 -38.536931 0.516414 -11.199884 22.655685 -0.508237 -1.499746 -16.481674 -1.313600 7.259600 -20.486900 1.023603 0.168273 -3.126721 1.471899 -0.853475 10.269698 6.449236 -7.231526 28.005672 -0.140000 -1.738800 6.822900 -101.238276 -2.566147 25.582106 18.728312 -23.932106 -5.354482 -1.516066 0.433029 -1.473009 -7.125000 0.000000 0.000000 90.251348 -0.057919 14.751032 -28.419836 39.959274 -12.993153 0.296696 3.626574 -7.712628 7.125000 0.000000 0.000000 
3.111915 20.392787 20.174417 171.961258 4.843764 -154.463348 -27.136439 -22.213019 -24.996957 1.710224 14.203539 35.646917 1.642057 10.382361 -16.291855 1.298300 -7.218900 -20.365500 13.002123 22.724305 -36.453522 0.540041 -10.681880 21.781160 -0.503630 -1.503196 -16.242547 -1.187200 6.914600 -19.462600 0.866860 0.306457 -3.038748 1.647753 -0.807373 9.873962 6.341681 -7.251250 28.286269 -0.167300 -1.724000 6.959700 -101.052479 -2.343075 25.702687 18.638565 -23.807725 -5.302652 -1.517214 0.466990 -1.522534 -7.125000 0.000000 0.000000 90.454543 -0.213277 14.777134 -28.504789 40.010111 -13.040426 0.299401 3.615938 -7.564879 7.125000 0.000000 0.000000 
3.143941 20.431723 20.145133 170.726626 5.407590 -156.001261 -29.728750 -21.652070 -23.655760 1.921492 14.312967 36.418565 1.703541 10.361464 -17.281291 1.505900 -7.750600 -21.959200 12.440333 22.471579 -34.127822 0.543750 -10.137485 20.942512 -0.501424 -1.530410 -15.996606 -1.115300 6.709200 -18.856700 0.688318 0.424840 -2.947905 1.882306 -0.770297 9.369857 6.258903 -7.391154 29.062258 -0.154000 -1.733500 7.358100 -101.000299 -2.045443 25.454884 18.556237 -23.686776 -5.253299 -1.502402 0.509282 -1.184877 -7.125000 0.000000 0.000000 90.619099 -0.415048 14.958281 -28.532059 40.009291 -13.042009 0.302366 3.592707 -7.444493 7.125000 0.000000 0.000000 
3.177941 20.468904 20.115081 169.722536 5.771007 -157.238599 -31.831083 -21.179378 -22.684372 2.129178 14.428355 37.130087 1.727180 9.852025 -17.757892 1.945700 -8.752000 -25.022400 12.134181 22.115509 -32.006545 0.574453 -9.532873 19.908032 -0.495744 -1.633709 -15.717192 -1.078200 6.600200 -18.536200 0.546973 0.587054 -2.815229 2.106962 -0.710776 9.229523 6.222284 -7.317858 28.621323 -0.199100 -1.728800 7.135800 -100.910610 -1.968004 25.336855 18.519831 -23.641452 -5.233224 -1.486196 0.522697 -0.943039 -7.125000 0.000000 0.000000 90.820937 -0.465609 15.014986 -28.635075 40.076190 -13.104791 0.320011 3.593871 -7.305921 7.125000 0.000000 0.000000 
3.210516 20.504111 20.087332 168.733911 6.122964 -158.337164 -33.798843 -20.721472 -21.913172 2.325799 14.531386 37.751585 1.735672 8.891280 -18.330092 2.272400 -9.411700 -27.091900 11.758830 21.643609 -30.183121 0.584664 -8.986632 19.005410 -0.488364 -1.528467 -15.378731 -1.010500 6.396100 -17.938100 0.405434 0.701971 -2.718195 2.277806 -0.665866 9.066731 6.217480 -7.344727 28.699256 -0.192400 -1.739400 7.197200 -100.753156 -1.816299 25.301081 18.512246 -23.630776 -5.227627 -1.473976 0.500543 -0.977837 -7.125000 0.000000 0.000000 91.011653 -0.528537 15.157339 -28.769338 40.176500 -13.191660 0.324643 3.608256 -7.146370 7.125000 0.000000 0.000000 
3.241555 20.535918 20.060022 167.793374 6.444106 -159.343790 -35.636798 -20.247677 -21.207627 2.471769 14.567302 38.134574 1.728813 7.706859 -18.921570 2.498100 -9.834500 -28.442400 11.316628 21.275425 -28.565118 0.582211 -8.514776 18.263555 -0.484218 -1.393057 -15.099993 -0.914400 6.092800 -17.054000 0.272804 0.798662 -2.652998 2.450844 -0.626982 8.883869 6.229326 -7.416919 29.231366 -0.147200 -1.735600 7.464700 -100.599765 -1.605687 25.317168 18.473648 -23.574461 -5.202348 -1.470391 0.468679 -1.041594 -7.125000 0.000000 0.000000 91.140437 -0.664847 15.264633 -28.725956 40.132700 -13.149776 0.309491 3.606505 -7.042092 7.125000 0.000000 0.000000 
